<svg width="12" height="11" viewBox="0 0 12 11" fill="none" xmlns="http://www.w3.org/2000/svg">
<path fill-rule="evenodd" clip-rule="evenodd" d="M0.810547 1.20711L1.4718 1.86836L2.7943 3.19087L5.29585 5.69244L3.00452 7.98377L1.57703 9.41125L0.863283 10.125L1.57039 10.8321L2.28413 10.1184L3.71162 8.69087L6.00295 6.39954L8.2943 8.69089L9.7218 10.1184L10.4355 10.8321L11.1427 10.125L10.4289 9.41128L9.0014 7.98378L6.71006 5.69244L9.21162 3.19087L10.5341 1.86836L11.1954 1.20711L10.4883 0.5L9.82703 1.16125L8.50452 2.48377L6.00295 4.98533L3.50141 2.48377L2.17891 1.16126L1.51766 0.5L0.810547 1.20711Z" fill="black" fill-opacity="0.8"/>
</svg>
