<svg width="15" height="16" viewBox="0 0 15 16" fill="none" xmlns="http://www.w3.org/2000/svg">
<path d="M13.9989 8C13.9989 11.5899 11.0856 14.5 7.49179 14.5C4.06643 14.5 1.25923 11.8562 1.00364 8.5H0C0.257575 12.409 3.51332 15.5 7.49179 15.5C11.6385 15.5 15 12.1421 15 8C15 3.85786 11.6385 0.5 7.49179 0.5C5.31636 0.5 3.35701 1.42418 1.98577 2.90093V0.5H0.984674V4.5H4.98905V3.5H2.79623C3.98045 2.26733 5.64641 1.5 7.49179 1.5C11.0856 1.5 13.9989 4.41015 13.9989 8Z" fill="black" fill-opacity="0.8"/>
<path d="M6.99124 3.5V8.5H9.99453V7.5H7.99234V3.5H6.99124Z" fill="black" fill-opacity="0.8"/>
</svg>
